<svg width="31" height="19" viewBox="0 0 31 19" fill="none" xmlns="http://www.w3.org/2000/svg">
<path d="M10.3688 8.85597C10.0121 8.10568 9.49551 7.52758 8.81901 7.12169C8.14252 6.70349 7.35533 6.49439 6.45744 6.49439C5.55954 6.49439 4.74775 6.70349 4.02206 7.12169C3.30867 7.52758 2.74287 8.11798 2.32468 8.89287C1.91878 9.65546 1.71583 10.5411 1.71583 11.5496C1.71583 12.5582 1.91878 13.4438 2.32468 14.2064C2.74287 14.969 3.30867 15.5594 4.02206 15.9776C4.74775 16.3835 5.55954 16.5864 6.45744 16.5864C7.71202 16.5864 8.74521 16.2113 9.55701 15.461C10.3688 14.7107 10.8423 13.696 10.9776 12.4168H5.84859V11.0515H12.7673V12.343C12.6689 13.4008 12.3368 14.3725 11.771 15.2581C11.2052 16.1313 10.461 16.8263 9.53856 17.3429C8.61606 17.8472 7.58902 18.0993 6.45744 18.0993C5.26435 18.0993 4.17581 17.8226 3.19182 17.2691C2.20783 16.7033 1.42679 15.9222 0.848692 14.926C0.282897 13.9297 0 12.8042 0 11.5496C0 10.2951 0.282897 9.16962 0.848692 8.17333C1.42679 7.16474 2.20783 6.38369 3.19182 5.8302C4.17581 5.2644 5.26435 4.98151 6.45744 4.98151C7.82272 4.98151 9.02811 5.31975 10.0736 5.99625C11.1314 6.67274 11.9001 7.62598 12.3798 8.85597H10.3688Z" fill="white"/>
<rect x="31" y="15.7066" width="2.30623" height="7.10753" transform="rotate(90.4707 31 15.7066)" fill="white"/>
<path d="M25.498 17.9885H23.1914V12.4534H17.1963V17.9885H14.8896V5.99634H17.1963V10.1477H23.1914V1.84497H25.498V17.9885Z" fill="white"/>
<path d="M16.79 5.08777L16.7803 5.09656L18.6445 6.96082L17.708 7.89734L15.8438 6.03308L13.9805 7.89734L13.0439 6.96082L14.9072 5.09656L14.8984 5.08777L15.835 4.15125L15.8438 4.16003L15.8535 4.15125L16.79 5.08777Z" fill="#EBA414"/>
<path d="M25.4248 0.936523L25.415 0.945312L27.2793 2.80957L26.3428 3.74609L24.4785 1.88184L22.6152 3.74609L21.6787 2.80957L23.542 0.945312L23.5332 0.936523L24.4697 0L24.4785 0.00878906L24.4883 0L25.4248 0.936523Z" fill="#34CB34"/>
</svg>
